<svg y="0px" x="0px" version="1.1" viewBox="0 0 103.75000000000001 104.75" xmlns:xlink="http://www.w3.org/1999/xlink" xmlns="http://www.w3.org/2000/svg" style="max-height: 500px" width="103.75000000000001" height="104.75"><title>Artboard</title><desc>Created with Sketch.</desc><g fill-rule="evenodd" fill="none" stroke-width="1" stroke="none"><path fill-rule="nonzero" fill="#000000" d="M54.6295833,17.4339777 C57.2948764,12.4013179 60.8287339,9.17669822 65.2528302,7.8236617 C66.0450362,7.58137861 66.8836554,8.02717925 67.1259385,8.81938529 C67.3682215,9.61159133 66.9224209,10.4502105 66.1302149,10.6924935 C64.4373554,11.2102265 62.8850621,12.0832548 61.4754348,13.317943 C67.0064955,13.1880956 72.1239167,16.7681728 73.7474679,22.2797433 L73.8325417,22.5822793 L74.2207703,24.031168 L72.7718815,24.4193966 C66.7349751,26.0369808 60.5457192,22.9468117 58.1019812,17.3993241 C56.7248804,19.6249613 55.5522734,22.370492 54.587446,25.645809 C71.7147915,27.6659014 85,42.2337597 85,59.9045447 C85,78.9583686 69.5538239,94.4045447 50.5,94.4045447 C31.4461761,94.4045447 16,78.9583686 16,59.9045447 C16,40.8507208 31.4461761,25.4045447 50.5,25.4045447 C50.8451828,25.4045447 51.1891816,25.4096141 51.531926,25.4196825 L51.3388463,26.1178132 C51.7662443,24.522742 52.2410776,23.0257862 52.7636195,21.6277745 C42.8405791,23.4933211 33.0037893,17.4205672 30.3472971,7.50640347 L29.9590686,6.05751473 L31.4079573,5.66928616 C41.1166291,3.06785541 51.0778856,8.2715494 54.6295833,17.4339777 Z M50.5,28.4045447 C33.1030304,28.4045447 19,42.5075751 19,59.9045447 C19,77.3015143 33.1030304,91.4045447 50.5,91.4045447 C67.8969696,91.4045447 82,77.3015143 82,59.9045447 C82,42.5075751 67.8969696,28.4045447 50.5,28.4045447 Z M35.8291796,37.5629039 C36.5701474,37.19242 37.4711569,37.4927566 37.8416408,38.2337243 C38.2121247,38.9746921 37.9117881,39.8757016 37.1708204,40.2461855 C29.7208891,43.9711511 26,51.1028553 26,61.9045447 C26,62.7329718 25.3284271,63.4045447 24.5,63.4045447 C23.6715729,63.4045447 23,62.7329718 23,61.9045447 C23,50.0395674 27.2791109,41.8379383 35.8291796,37.5629039 Z M60.9215753,16.3528742 C62.5203923,19.8004941 66.041551,21.9537921 69.8064852,21.8436476 L70.096548,21.8306943 L70.3735371,21.8099669 L70.252993,21.5597237 C68.5179127,18.0891318 64.8037649,16.0049832 60.9215753,16.3528742 Z M34.0672524,8.17693063 L33.7240699,8.23123925 L33.8486285,8.55559832 C36.7008384,15.7561153 44.2471665,20.0288415 51.9137096,18.7330326 C49.2026415,11.4457071 41.729188,7.0467584 34.0672524,8.17693063 Z"/></g><text font-family="'Helvetica Neue', Helvetica, Arial-Unicode, Arial, Sans-serif" font-weight="bold" font-size="5px" fill="#000000" y="115" x="0">Created by franc11s</text><text font-family="'Helvetica Neue', Helvetica, Arial-Unicode, Arial, Sans-serif" font-weight="bold" font-size="5px" fill="#000000" y="120" x="0">from the Noun Project</text></svg>