<svg viewBox="-5 -10 112.16216216216216 113.13" version="1.1" xmlns="http://www.w3.org/2000/svg" style="max-height: 500px" width="112.16216216216216" height="113.13">
 <path d="m77.016 5.0312c2.3398-0.28516 4.8047 1.4648 5.6367 3.6016 1.1602 2.9805-0.60547 4.8594-2.0547 7.0625-0.59375 0.91016-1.082 1.832-1.5234 2.8281 4.4258 2.9531 6.0156 9.5 6.1836 14.484 0.40234 11.934-5.5586 24.957-12.574 34.461-9.1484 12.402-24.754 24.703-40.02 27.262-1.8477 0.30859-3.6367 0.21094-5.4961 0.26953-1-0.29297-2.0508-0.41797-3.0586-0.68359-5.1953-1.3711-9.2891-5.3555-9.3828-10.945-0.10937-6.2344 3.8047-11.387 9.3359-14.055 1.6602-0.80078 3.5078-1.1914 5.25-1.7773 8.457-2.8359 16.289-8.6484 21.375-16.023 4.5273-6.5625 6.8125-12.02 7.6758-19.828 0.51172-4.6172 3.2578-10.117 6.8477-12.969 1.5586-1.2383 4.3125-2.6875 6.3672-2.4531 0.57031-1.9648 1.3203-2.9766 1.332-5.1055 0.015625-2.9414 0.82422-5.5742 4.1055-6.1289zm-4.8984 13.492c-6.1992 0.30078-10.242 7.0312-11.227 12.516-0.40234 2.2383-0.44531 4.0625-1.043 6.418-3.2734 12.875-12.59 24.492-24.613 30.266-4.1797 2.0039-9.1289 2.7305-12.738 5.4219-7.8672 5.875-7.5078 16.793 3.0938 19.129 0.72656 0.16016 1.5 0.19141 2.2109 0.40234 4.4453 0.039063 7.5117-0.73438 11.727-2.332 18.238-6.918 35.105-24.32 41.059-43.129 2.418-7.6406 4.3594-19.539-1.8789-25.887-1.6914-1.7188-4.1211-2.9844-6.5898-2.8047zm5.1016-11.152c-2.4844 0.72266-1.8594 3.3633-2.1523 5.3281-0.20312 1.3672-0.73438 2.3867-0.96484 3.5664 1.0508 0.20312 1.9453 0.50781 2.9141 0.97266l0.20312-0.35938c1.0625-2.3047 4.0898-5.207 3.293-7.3008-0.46875-1.2227-1.9414-2.3164-3.293-2.207z"/>
 <path d="m74.102 36.859c2.0664-0.27344 1.4062 3.3125 0.20313 3.8984-2.1211 0.5-1.582-2.4141-1.0547-3.3867 0.17578-0.32812 0.51953-0.41016 0.85156-0.51172z"/>
 <path d="m69.297 49.066c2.5078-0.23047 1.4062 3.332 0.16797 3.7812-2.3633 0.66797-1.6406-3.1719-0.16797-3.7812z"/>
 <path d="m62.09 60.293c2.9375-0.40625 0.96094 3.4531-0.28516 3.9961-0.59375 0.13281-1.2266-0.14453-1.4648-0.72656-0.34766-0.85156 0.87891-2.8867 1.75-3.2695z"/>
 <path d="m52.898 69.957c0.90625-0.003906 1.25 0.30078 1.4531 1.1992-0.29687 1.2812-1.8438 2.1914-2.8086 2.9492-4.0586 3.1914-9.8555 6.5-15.035 7.5234-1.457 0.1875-1.9766-1.5352-0.64453-2.1641 0.63281-0.30078 1.3945-0.42969 2.0625-0.66016 3.7461-1.3008 7.043-2.9023 10.309-5.1641 1.1172-0.77344 4.2266-3.5391 4.6641-3.6836z"/>
<text fill="#000000" font-family="Arbeit Regular, Helvetica, Arial-Unicode, Arial, Sans-serif" font-weight="bold" font-size="5.0" y="117.5" x="0.0">Created by Shayan Lee</text><text fill="#000000" font-family="Arbeit Regular, Helvetica, Arial-Unicode, Arial, Sans-serif" font-weight="bold" font-size="5.0" y="122.5" x="0.0">from Noun Project</text></svg>