<svg viewBox="0 0 103.75000000000001 104.75" y="0px" x="0px" version="1.1" xmlns="http://www.w3.org/2000/svg" style="max-height: 500px" width="103.75000000000001" height="104.75"><g transform="translate(0,-952.36218)"><path overflow="visible" display="inline" visibility="visible" stroke="none" fill-opacity="1" fill="#000000" d="m 56,969.3622 c -4.91097,0 -9.93509,1.86924 -14.1875,4.37497 -3.870785,2.2809 -7.090943,5.0361 -9,7.7813 -11.894019,2.7224 -21.672353,10.0974 -26.59375,19.93753 -0.14262,0.2793 -0.218236,0.5926 -0.21875,0.9062 5.14e-4,0.3136 0.07613,0.627 0.21875,0.9063 4.921397,9.8401 14.699731,17.2151 26.59375,19.9375 1.909057,2.7452 5.129215,5.5003 9,7.7812 4.25241,2.5057 9.27653,4.375 14.1875,4.375 1.26116,0 2.3002,-1.427 1.90625,-2.625 l -3.28125,-9.875 c 7.42204,-1.9604 13.93571,-5.7738 18.875,-10.8437 0.90448,1.324 1.9638,2.5937 3.15625,3.75 3.93531,3.8161 9.33998,6.5937 15.34375,6.5937 1.04121,-6e-4 2,-0.9799 2,-2 0,-0.2877 -0.0627,-0.5753 -0.1875,-0.8437 -2.29,-4.8181 -4.26082,-11.08 -5.75,-17.1563 1.48918,-6.07633 3.46,-12.33813 5.75,-17.15623 0.12483,-0.2684 0.1875,-0.5561 0.1875,-0.8438 0,-1.0201 -0.95879,-1.9994 -2,-2 -6.00377,0 -11.40844,2.7777 -15.34375,6.5938 -1.19245,1.1563 -2.25177,2.426 -3.15625,3.75 -4.93929,-5.0699 -11.45296,-8.8834 -18.875,-10.8438 l 3.28125,-9.87497 C 58.3002,970.78915 57.26116,969.35833 56,969.3622 z m -2.875,4.28125 -2.46875,7.37502 c -2.48036,-0.419 -5.03927,-0.6563 -7.65625,-0.6563 -1.27833,0 -2.532696,0.085 -3.78125,0.1875 1.326037,-1.159 2.89235,-2.3227 4.625,-3.3437 2.88624,-1.7008 6.18973,-3.0166 9.28125,-3.56252 z M 43,984.36217 c 14.55368,0 26.94321,7.4537 32.6875,18.00003 -5.74429,10.5463 -18.13382,18 -32.6875,18 -14.553671,0 -26.943201,-7.4537 -32.6875,-18 C 16.056799,991.81587 28.446329,984.36217 43,984.36217 z m 45.9375,2.3438 c -1.93202,4.7184 -3.61257,9.9577 -4.875,15.18753 -0.0393,0.153 -0.0603,0.3107 -0.0625,0.4687 0.002,0.158 0.0232,0.3158 0.0625,0.4688 1.26243,5.2298 2.94298,10.4691 4.875,15.1875 -3.5857,-0.7264 -6.90476,-2.6084 -9.5,-5.125 -1.28291,-1.244 -2.33279,-2.6453 -3.1875,-4.0625 1.34818,-1.7519 2.54849,-3.5975 3.53125,-5.5625 0.14262,-0.2793 0.21824,-0.5927 0.21875,-0.9063 -5.1e-4,-0.3136 -0.0761,-0.6269 -0.21875,-0.9062 -0.98276,-1.96503 -2.18307,-3.81063 -3.53125,-5.56253 0.85471,-1.4172 1.90459,-2.8185 3.1875,-4.0625 2.59524,-2.5166 5.9143,-4.3986 9.5,-5.125 z m -38.28125,37.00003 2.46875,7.375 c -3.09152,-0.5459 -6.39501,-1.8617 -9.28125,-3.5625 -1.73265,-1.021 -3.298963,-2.1848 -4.625,-3.3438 1.248554,0.1025 2.50292,0.1875 3.78125,0.1875 2.61698,0 5.17589,-0.2372 7.65625,-0.6562 z" style="text-indent:0;text-transform:none;direction:ltr;block-progression:tb;baseline-shift:baseline;color:#000000;enable-background:accumulate;"/></g><text font-family="'Helvetica Neue', Helvetica, Arial-Unicode, Arial, Sans-serif" font-weight="bold" font-size="5px" fill="#000000" y="115" x="0">Created by joe pictos</text><text font-family="'Helvetica Neue', Helvetica, Arial-Unicode, Arial, Sans-serif" font-weight="bold" font-size="5px" fill="#000000" y="120" x="0">from the Noun Project</text></svg>